<svg xmlns="http://www.w3.org/2000/svg" xmlns:xlink="http://www.w3.org/1999/xlink" width="133.465" height="142.277" viewBox="0 0 133.465 142.277">
  <defs>
    <linearGradient id="linear-gradient" y1="0.5" x2="1" y2="0.5" gradientUnits="objectBoundingBox">
      <stop offset="0" stop-color="#0057dc"/>
      <stop offset="0.202" stop-color="#036ee5"/>
      <stop offset="0.537" stop-color="#0890f3"/>
      <stop offset="0.815" stop-color="#0aa4fb"/>
      <stop offset="1" stop-color="#0cacff"/>
    </linearGradient>
  </defs>
  <g id="Group_2085" data-name="Group 2085" transform="translate(-6054.667 -189.363)">
    <rect id="Rectangle_331" data-name="Rectangle 331" width="29.806" height="29.806" rx="4.332" transform="translate(6156.673 250.654)" fill="#fff"/>
    <g id="Group_2037" data-name="Group 2037" transform="translate(6105.343 200.358)">
      <g id="Group_2011" data-name="Group 2011" transform="translate(75.25)">
        <path id="Path_4080" data-name="Path 4080" d="M6185.719,207.811h-4.8a1.371,1.371,0,0,1-1.369-1.369v-4.8a1.372,1.372,0,0,1,1.369-1.37h4.8a1.371,1.371,0,0,1,1.369,1.37v4.8A1.37,1.37,0,0,1,6185.719,207.811Zm-4.8-6.832a.661.661,0,0,0-.66.66v4.8a.661.661,0,0,0,.66.66h4.8a.662.662,0,0,0,.661-.66v-4.8a.662.662,0,0,0-.661-.66Z" transform="translate(-6179.547 -200.269)" fill="#0c1011"/>
      </g>
      <g id="Group_2012" data-name="Group 2012" transform="translate(66.888)">
        <path id="Path_4081" data-name="Path 4081" d="M6177.427,207.811h-4.8a1.371,1.371,0,0,1-1.369-1.369v-4.8a1.372,1.372,0,0,1,1.369-1.37h4.8a1.372,1.372,0,0,1,1.37,1.37v4.8A1.372,1.372,0,0,1,6177.427,207.811Zm-4.8-6.832a.661.661,0,0,0-.659.66v4.8a.661.661,0,0,0,.659.66h4.8a.661.661,0,0,0,.66-.66v-4.8a.661.661,0,0,0-.66-.66Z" transform="translate(-6171.256 -200.269)" fill="#0c1011"/>
      </g>
      <g id="Group_2013" data-name="Group 2013" transform="translate(58.528)">
        <path id="Path_4082" data-name="Path 4082" d="M6169.136,207.811h-4.8a1.371,1.371,0,0,1-1.37-1.369v-4.8a1.372,1.372,0,0,1,1.37-1.37h4.8a1.372,1.372,0,0,1,1.37,1.37v4.8A1.371,1.371,0,0,1,6169.136,207.811Zm-4.8-6.832a.661.661,0,0,0-.661.66v4.8a.661.661,0,0,0,.661.66h4.8a.662.662,0,0,0,.661-.66v-4.8a.662.662,0,0,0-.661-.66Z" transform="translate(-6162.964 -200.269)" fill="#0c1011"/>
      </g>
      <g id="Group_2014" data-name="Group 2014" transform="translate(50.166)">
        <path id="Path_4083" data-name="Path 4083" d="M6160.844,207.811h-4.8a1.371,1.371,0,0,1-1.369-1.369v-4.8a1.372,1.372,0,0,1,1.369-1.37h4.8a1.372,1.372,0,0,1,1.37,1.37v4.8A1.371,1.371,0,0,1,6160.844,207.811Zm-4.8-6.832a.661.661,0,0,0-.659.66v4.8a.661.661,0,0,0,.659.66h4.8a.662.662,0,0,0,.661-.66v-4.8a.662.662,0,0,0-.661-.66Z" transform="translate(-6154.672 -200.269)" fill="#0c1011"/>
      </g>
      <g id="Group_2015" data-name="Group 2015" transform="translate(41.806)">
        <path id="Path_4084" data-name="Path 4084" d="M6152.553,207.811h-4.8a1.371,1.371,0,0,1-1.37-1.369v-4.8a1.372,1.372,0,0,1,1.37-1.37h4.8a1.372,1.372,0,0,1,1.37,1.37v4.8A1.371,1.371,0,0,1,6152.553,207.811Zm-4.8-6.832a.662.662,0,0,0-.661.66v4.8a.662.662,0,0,0,.661.66h4.8a.662.662,0,0,0,.661-.66v-4.8a.662.662,0,0,0-.661-.66Z" transform="translate(-6146.381 -200.269)" fill="#0c1011"/>
      </g>
      <g id="Group_2016" data-name="Group 2016" transform="translate(41.806 8.381)">
        <path id="Path_4085" data-name="Path 4085" d="M6152.553,216.122h-4.8a1.372,1.372,0,0,1-1.37-1.37v-4.8a1.371,1.371,0,0,1,1.37-1.369h4.8a1.371,1.371,0,0,1,1.37,1.369v4.8A1.372,1.372,0,0,1,6152.553,216.122Zm-4.8-6.832a.661.661,0,0,0-.661.66v4.8a.662.662,0,0,0,.661.66h4.8a.662.662,0,0,0,.661-.66v-4.8a.661.661,0,0,0-.661-.66Z" transform="translate(-6146.381 -208.58)" fill="#0c1011"/>
      </g>
      <g id="Group_2017" data-name="Group 2017" transform="translate(41.806 16.587)">
        <path id="Path_4086" data-name="Path 4086" d="M6152.553,224.26h-4.8a1.372,1.372,0,0,1-1.37-1.37v-4.8a1.371,1.371,0,0,1,1.37-1.369h4.8a1.371,1.371,0,0,1,1.37,1.369v4.8A1.372,1.372,0,0,1,6152.553,224.26Zm-4.8-6.833a.662.662,0,0,0-.661.66v4.8a.662.662,0,0,0,.661.66h4.8a.662.662,0,0,0,.661-.66v-4.8a.662.662,0,0,0-.661-.66Z" transform="translate(-6146.381 -216.718)" fill="#0c1011"/>
      </g>
      <g id="Group_2018" data-name="Group 2018" transform="translate(41.806 24.793)">
        <path id="Path_4087" data-name="Path 4087" d="M6152.553,232.4h-4.8a1.372,1.372,0,0,1-1.37-1.37v-4.8a1.371,1.371,0,0,1,1.37-1.369h4.8a1.371,1.371,0,0,1,1.37,1.369v4.8A1.372,1.372,0,0,1,6152.553,232.4Zm-4.8-6.833a.662.662,0,0,0-.661.66v4.8a.662.662,0,0,0,.661.66h4.8a.662.662,0,0,0,.661-.66v-4.8a.662.662,0,0,0-.661-.66Z" transform="translate(-6146.381 -224.856)" fill="#0c1011"/>
      </g>
      <g id="Group_2019" data-name="Group 2019" transform="translate(41.806 32.999)">
        <path id="Path_4088" data-name="Path 4088" d="M6152.553,240.536h-4.8a1.372,1.372,0,0,1-1.37-1.37v-4.8a1.371,1.371,0,0,1,1.37-1.369h4.8a1.371,1.371,0,0,1,1.37,1.369v4.8A1.372,1.372,0,0,1,6152.553,240.536Zm-4.8-6.833a.662.662,0,0,0-.661.66v4.8a.662.662,0,0,0,.661.66h4.8a.662.662,0,0,0,.661-.66v-4.8a.662.662,0,0,0-.661-.66Z" transform="translate(-6146.381 -232.994)" fill="#0c1011"/>
      </g>
      <path id="Path_4089" data-name="Path 4089" d="M6152.553,248.673h-4.8a1.371,1.371,0,0,1-1.37-1.369v-4.8a1.371,1.371,0,0,1,1.37-1.369h4.8a1.371,1.371,0,0,1,1.37,1.369v4.8A1.371,1.371,0,0,1,6152.553,248.673Zm-4.8-6.832a.662.662,0,0,0-.661.66v4.8a.662.662,0,0,0,.661.66h4.8a.662.662,0,0,0,.661-.66v-4.8a.662.662,0,0,0-.661-.66Z" transform="translate(-6104.576 -199.926)" fill="#0c1011"/>
      <g id="Group_2020" data-name="Group 2020" transform="translate(75.25 41.4)">
        <path id="Path_4090" data-name="Path 4090" d="M6185.719,248.867h-4.8a1.371,1.371,0,0,1-1.369-1.369v-4.8a1.372,1.372,0,0,1,1.369-1.37h4.8a1.371,1.371,0,0,1,1.369,1.37v4.8A1.37,1.37,0,0,1,6185.719,248.867Zm-4.8-6.832a.661.661,0,0,0-.66.66v4.8a.66.66,0,0,0,.66.659h4.8a.661.661,0,0,0,.661-.659v-4.8a.662.662,0,0,0-.661-.66Z" transform="translate(-6179.547 -241.325)" fill="#0c1011"/>
      </g>
      <g id="Group_2021" data-name="Group 2021" transform="translate(66.888 41.4)">
        <path id="Path_4091" data-name="Path 4091" d="M6177.427,248.867h-4.8a1.371,1.371,0,0,1-1.369-1.369v-4.8a1.372,1.372,0,0,1,1.369-1.37h4.8a1.372,1.372,0,0,1,1.37,1.37v4.8A1.372,1.372,0,0,1,6177.427,248.867Zm-4.8-6.832a.66.66,0,0,0-.659.66v4.8a.66.66,0,0,0,.659.659h4.8a.66.66,0,0,0,.66-.659v-4.8a.661.661,0,0,0-.66-.66Z" transform="translate(-6171.256 -241.325)" fill="#0c1011"/>
      </g>
      <g id="Group_2022" data-name="Group 2022" transform="translate(58.528 41.4)">
        <path id="Path_4092" data-name="Path 4092" d="M6169.136,248.867h-4.8a1.371,1.371,0,0,1-1.37-1.369v-4.8a1.372,1.372,0,0,1,1.37-1.37h4.8a1.372,1.372,0,0,1,1.37,1.37v4.8A1.371,1.371,0,0,1,6169.136,248.867Zm-4.8-6.832a.661.661,0,0,0-.661.66v4.8a.661.661,0,0,0,.661.659h4.8a.661.661,0,0,0,.661-.659v-4.8a.662.662,0,0,0-.661-.66Z" transform="translate(-6162.964 -241.325)" fill="#0c1011"/>
      </g>
      <g id="Group_2023" data-name="Group 2023" transform="translate(50.166 41.4)">
        <path id="Path_4093" data-name="Path 4093" d="M6160.844,248.867h-4.8a1.371,1.371,0,0,1-1.369-1.369v-4.8a1.372,1.372,0,0,1,1.369-1.37h4.8a1.372,1.372,0,0,1,1.37,1.37v4.8A1.371,1.371,0,0,1,6160.844,248.867Zm-4.8-6.832a.66.66,0,0,0-.659.66v4.8a.66.66,0,0,0,.659.659h4.8a.661.661,0,0,0,.661-.659v-4.8a.662.662,0,0,0-.661-.66Z" transform="translate(-6154.672 -241.325)" fill="#0c1011"/>
      </g>
      <g id="Group_2024" data-name="Group 2024" transform="translate(41.806 49.412)">
        <path id="Path_4094" data-name="Path 4094" d="M6152.553,256.811h-4.8a1.371,1.371,0,0,1-1.37-1.369v-4.8a1.371,1.371,0,0,1,1.37-1.369h4.8a1.371,1.371,0,0,1,1.37,1.369v4.8A1.371,1.371,0,0,1,6152.553,256.811Zm-4.8-6.832a.662.662,0,0,0-.661.66v4.8a.662.662,0,0,0,.661.661h4.8a.662.662,0,0,0,.661-.661v-4.8a.662.662,0,0,0-.661-.66Z" transform="translate(-6146.381 -249.27)" fill="#0c1011"/>
      </g>
      <g id="Group_2025" data-name="Group 2025" transform="translate(41.806 57.618)">
        <path id="Path_4095" data-name="Path 4095" d="M6152.553,264.949h-4.8a1.371,1.371,0,0,1-1.37-1.369v-4.8a1.371,1.371,0,0,1,1.37-1.369h4.8a1.371,1.371,0,0,1,1.37,1.369v4.8A1.371,1.371,0,0,1,6152.553,264.949Zm-4.8-6.832a.662.662,0,0,0-.661.66v4.8a.662.662,0,0,0,.661.66h4.8a.662.662,0,0,0,.661-.66v-4.8a.662.662,0,0,0-.661-.66Z" transform="translate(-6146.381 -257.408)" fill="#0c1011"/>
      </g>
      <g id="Group_2026" data-name="Group 2026" transform="translate(41.806 65.824)">
        <path id="Path_4096" data-name="Path 4096" d="M6152.553,273.087h-4.8a1.371,1.371,0,0,1-1.37-1.369v-4.8a1.371,1.371,0,0,1,1.37-1.369h4.8a1.371,1.371,0,0,1,1.37,1.369v4.8A1.371,1.371,0,0,1,6152.553,273.087Zm-4.8-6.832a.662.662,0,0,0-.661.66v4.8a.662.662,0,0,0,.661.661h4.8a.662.662,0,0,0,.661-.661v-4.8a.662.662,0,0,0-.661-.66Z" transform="translate(-6146.381 -265.546)" fill="#0c1011"/>
      </g>
      <g id="Group_2027" data-name="Group 2027" transform="translate(41.806 74.031)">
        <path id="Path_4097" data-name="Path 4097" d="M6152.553,281.225h-4.8a1.371,1.371,0,0,1-1.37-1.369v-4.8a1.371,1.371,0,0,1,1.37-1.369h4.8a1.371,1.371,0,0,1,1.37,1.369v4.8A1.371,1.371,0,0,1,6152.553,281.225Zm-4.8-6.832a.662.662,0,0,0-.661.66v4.8a.662.662,0,0,0,.661.661h4.8a.662.662,0,0,0,.661-.661v-4.8a.662.662,0,0,0-.661-.66Z" transform="translate(-6146.381 -273.684)" fill="#0c1011"/>
      </g>
      <g id="Group_2028" data-name="Group 2028" transform="translate(0 41.206)">
        <path id="Path_4098" data-name="Path 4098" d="M6111.1,248.673h-4.8a1.371,1.371,0,0,1-1.37-1.369v-4.8a1.371,1.371,0,0,1,1.37-1.369h4.8a1.371,1.371,0,0,1,1.369,1.369v4.8A1.371,1.371,0,0,1,6111.1,248.673Zm-4.8-6.832a.661.661,0,0,0-.661.66v4.8a.661.661,0,0,0,.661.66h4.8a.662.662,0,0,0,.661-.66v-4.8a.662.662,0,0,0-.661-.66Z" transform="translate(-6104.923 -241.132)" fill="#0c1011"/>
      </g>
      <g id="Group_2029" data-name="Group 2029" transform="translate(33.444 41.4)">
        <path id="Path_4099" data-name="Path 4099" d="M6144.261,248.867h-4.8a1.371,1.371,0,0,1-1.37-1.369v-4.8a1.372,1.372,0,0,1,1.37-1.37h4.8a1.371,1.371,0,0,1,1.369,1.37v4.8A1.37,1.37,0,0,1,6144.261,248.867Zm-4.8-6.832a.661.661,0,0,0-.661.66v4.8a.661.661,0,0,0,.661.659h4.8a.661.661,0,0,0,.661-.659v-4.8a.662.662,0,0,0-.661-.66Z" transform="translate(-6138.089 -241.325)" fill="#0c1011"/>
      </g>
      <g id="Group_2030" data-name="Group 2030" transform="translate(25.084 41.4)">
        <path id="Path_4100" data-name="Path 4100" d="M6135.97,248.867h-4.8a1.371,1.371,0,0,1-1.37-1.369v-4.8a1.372,1.372,0,0,1,1.37-1.37h4.8a1.371,1.371,0,0,1,1.369,1.37v4.8A1.37,1.37,0,0,1,6135.97,248.867Zm-4.8-6.832a.661.661,0,0,0-.661.66v4.8a.661.661,0,0,0,.661.659h4.8a.661.661,0,0,0,.661-.659v-4.8a.662.662,0,0,0-.661-.66Z" transform="translate(-6129.799 -241.325)" fill="#0c1011"/>
      </g>
      <g id="Group_2031" data-name="Group 2031" transform="translate(16.722 41.4)">
        <path id="Path_4101" data-name="Path 4101" d="M6127.678,248.867h-4.8a1.371,1.371,0,0,1-1.37-1.369v-4.8a1.372,1.372,0,0,1,1.37-1.37h4.8a1.372,1.372,0,0,1,1.37,1.37v4.8A1.371,1.371,0,0,1,6127.678,248.867Zm-4.8-6.832a.662.662,0,0,0-.661.66v4.8a.661.661,0,0,0,.661.659h4.8a.661.661,0,0,0,.661-.659v-4.8a.662.662,0,0,0-.661-.66Z" transform="translate(-6121.506 -241.325)" fill="#0c1011"/>
      </g>
      <g id="Group_2032" data-name="Group 2032" transform="translate(8.361 41.4)">
        <path id="Path_4102" data-name="Path 4102" d="M6119.387,248.867h-4.8a1.372,1.372,0,0,1-1.371-1.369v-4.8a1.373,1.373,0,0,1,1.371-1.37h4.8a1.371,1.371,0,0,1,1.369,1.37v4.8A1.37,1.37,0,0,1,6119.387,248.867Zm-4.8-6.832a.661.661,0,0,0-.661.66v4.8a.661.661,0,0,0,.661.659h4.8a.661.661,0,0,0,.661-.659v-4.8a.662.662,0,0,0-.661-.66Z" transform="translate(-6113.214 -241.325)" fill="#0c1011"/>
      </g>
      <g id="Group_2033" data-name="Group 2033" transform="translate(0 49.412)">
        <path id="Path_4103" data-name="Path 4103" d="M6111.1,256.811h-4.8a1.371,1.371,0,0,1-1.37-1.369v-4.8a1.371,1.371,0,0,1,1.37-1.369h4.8a1.371,1.371,0,0,1,1.369,1.369v4.8A1.371,1.371,0,0,1,6111.1,256.811Zm-4.8-6.832a.661.661,0,0,0-.661.66v4.8a.661.661,0,0,0,.661.661h4.8a.662.662,0,0,0,.661-.661v-4.8a.662.662,0,0,0-.661-.66Z" transform="translate(-6104.923 -249.27)" fill="#0c1011"/>
      </g>
      <g id="Group_2034" data-name="Group 2034" transform="translate(0 57.618)">
        <path id="Path_4104" data-name="Path 4104" d="M6111.1,264.949h-4.8a1.371,1.371,0,0,1-1.37-1.369v-4.8a1.371,1.371,0,0,1,1.37-1.369h4.8a1.371,1.371,0,0,1,1.369,1.369v4.8A1.371,1.371,0,0,1,6111.1,264.949Zm-4.8-6.832a.661.661,0,0,0-.661.66v4.8a.661.661,0,0,0,.661.66h4.8a.662.662,0,0,0,.661-.66v-4.8a.662.662,0,0,0-.661-.66Z" transform="translate(-6104.923 -257.408)" fill="#0c1011"/>
      </g>
      <g id="Group_2035" data-name="Group 2035" transform="translate(0 65.824)">
        <path id="Path_4105" data-name="Path 4105" d="M6111.1,273.087h-4.8a1.371,1.371,0,0,1-1.37-1.369v-4.8a1.371,1.371,0,0,1,1.37-1.369h4.8a1.371,1.371,0,0,1,1.369,1.369v4.8A1.371,1.371,0,0,1,6111.1,273.087Zm-4.8-6.832a.661.661,0,0,0-.661.66v4.8a.661.661,0,0,0,.661.661h4.8a.662.662,0,0,0,.661-.661v-4.8a.662.662,0,0,0-.661-.66Z" transform="translate(-6104.923 -265.546)" fill="#0c1011"/>
      </g>
      <g id="Group_2036" data-name="Group 2036" transform="translate(0 74.031)">
        <path id="Path_4106" data-name="Path 4106" d="M6111.1,281.225h-4.8a1.371,1.371,0,0,1-1.37-1.369v-4.8a1.371,1.371,0,0,1,1.37-1.369h4.8a1.371,1.371,0,0,1,1.369,1.369v4.8A1.371,1.371,0,0,1,6111.1,281.225Zm-4.8-6.832a.661.661,0,0,0-.661.66v4.8a.661.661,0,0,0,.661.661h4.8a.662.662,0,0,0,.661-.661v-4.8a.662.662,0,0,0-.661-.66Z" transform="translate(-6104.923 -273.684)" fill="#0c1011"/>
      </g>
    </g>
    <g id="Group_2053" data-name="Group 2053" transform="translate(6063.537 282.595)">
      <g id="Group_2038" data-name="Group 2038" transform="translate(83.611 0)">
        <path id="Path_4107" data-name="Path 4107" d="M6152.553,289.363h-4.8a1.371,1.371,0,0,1-1.37-1.369v-4.8a1.371,1.371,0,0,1,1.37-1.369h4.8a1.371,1.371,0,0,1,1.37,1.369v4.8A1.371,1.371,0,0,1,6152.553,289.363Zm-4.8-6.832a.662.662,0,0,0-.661.66v4.8a.662.662,0,0,0,.661.66h4.8a.662.662,0,0,0,.661-.66v-4.8a.662.662,0,0,0-.661-.66Z" transform="translate(-6146.381 -281.822)" fill="#0c1011"/>
      </g>
      <g id="Group_2039" data-name="Group 2039" transform="translate(117.055 0.195)">
        <path id="Path_4108" data-name="Path 4108" d="M6185.719,289.557h-4.8a1.372,1.372,0,0,1-1.369-1.37v-4.8a1.372,1.372,0,0,1,1.369-1.37h4.8a1.371,1.371,0,0,1,1.369,1.37v4.8A1.371,1.371,0,0,1,6185.719,289.557Zm-4.8-6.832a.661.661,0,0,0-.66.66v4.8a.661.661,0,0,0,.66.66h4.8a.661.661,0,0,0,.661-.66v-4.8a.661.661,0,0,0-.661-.66Z" transform="translate(-6179.547 -282.015)" fill="#0c1011"/>
      </g>
      <g id="Group_2040" data-name="Group 2040" transform="translate(108.694 0.195)">
        <path id="Path_4109" data-name="Path 4109" d="M6177.427,289.557h-4.8a1.372,1.372,0,0,1-1.369-1.37v-4.8a1.372,1.372,0,0,1,1.369-1.37h4.8a1.372,1.372,0,0,1,1.37,1.37v4.8A1.372,1.372,0,0,1,6177.427,289.557Zm-4.8-6.832a.66.66,0,0,0-.659.66v4.8a.66.66,0,0,0,.659.66h4.8a.661.661,0,0,0,.66-.66v-4.8a.661.661,0,0,0-.66-.66Z" transform="translate(-6171.256 -282.015)" fill="#0c1011"/>
      </g>
      <g id="Group_2041" data-name="Group 2041" transform="translate(100.333 0.195)">
        <path id="Path_4110" data-name="Path 4110" d="M6169.136,289.557h-4.8a1.372,1.372,0,0,1-1.37-1.37v-4.8a1.372,1.372,0,0,1,1.37-1.37h4.8a1.372,1.372,0,0,1,1.37,1.37v4.8A1.372,1.372,0,0,1,6169.136,289.557Zm-4.8-6.832a.661.661,0,0,0-.661.66v4.8a.661.661,0,0,0,.661.66h4.8a.662.662,0,0,0,.661-.66v-4.8a.662.662,0,0,0-.661-.66Z" transform="translate(-6162.964 -282.015)" fill="#0c1011"/>
      </g>
      <g id="Group_2042" data-name="Group 2042" transform="translate(91.972 0.195)">
        <path id="Path_4111" data-name="Path 4111" d="M6160.844,289.557h-4.8a1.372,1.372,0,0,1-1.369-1.37v-4.8a1.372,1.372,0,0,1,1.369-1.37h4.8a1.372,1.372,0,0,1,1.37,1.37v4.8A1.372,1.372,0,0,1,6160.844,289.557Zm-4.8-6.832a.66.66,0,0,0-.659.66v4.8a.66.66,0,0,0,.659.66h4.8a.661.661,0,0,0,.661-.66v-4.8a.661.661,0,0,0-.661-.66Z" transform="translate(-6154.672 -282.015)" fill="#0c1011"/>
      </g>
      <g id="Group_2043" data-name="Group 2043" transform="translate(41.806 0)">
        <path id="Path_4112" data-name="Path 4112" d="M6111.1,289.363h-4.8a1.371,1.371,0,0,1-1.37-1.369v-4.8a1.371,1.371,0,0,1,1.37-1.369h4.8a1.371,1.371,0,0,1,1.369,1.369v4.8A1.371,1.371,0,0,1,6111.1,289.363Zm-4.8-6.832a.661.661,0,0,0-.661.66v4.8a.661.661,0,0,0,.661.66h4.8a.662.662,0,0,0,.661-.66v-4.8a.662.662,0,0,0-.661-.66Z" transform="translate(-6104.923 -281.822)" fill="#0c1011"/>
      </g>
      <g id="Group_2044" data-name="Group 2044" transform="translate(75.25 0.195)">
        <path id="Path_4113" data-name="Path 4113" d="M6144.261,289.557h-4.8a1.372,1.372,0,0,1-1.37-1.37v-4.8a1.372,1.372,0,0,1,1.37-1.37h4.8a1.371,1.371,0,0,1,1.369,1.37v4.8A1.371,1.371,0,0,1,6144.261,289.557Zm-4.8-6.832a.661.661,0,0,0-.661.66v4.8a.661.661,0,0,0,.661.66h4.8a.661.661,0,0,0,.661-.66v-4.8a.661.661,0,0,0-.661-.66Z" transform="translate(-6138.089 -282.015)" fill="#0c1011"/>
      </g>
      <g id="Group_2045" data-name="Group 2045" transform="translate(66.889 0.195)">
        <path id="Path_4114" data-name="Path 4114" d="M6135.97,289.557h-4.8a1.372,1.372,0,0,1-1.37-1.37v-4.8a1.372,1.372,0,0,1,1.37-1.37h4.8a1.371,1.371,0,0,1,1.369,1.37v4.8A1.371,1.371,0,0,1,6135.97,289.557Zm-4.8-6.832a.661.661,0,0,0-.661.66v4.8a.661.661,0,0,0,.661.66h4.8a.661.661,0,0,0,.661-.66v-4.8a.661.661,0,0,0-.661-.66Z" transform="translate(-6129.799 -282.015)" fill="#0c1011"/>
      </g>
      <g id="Group_2046" data-name="Group 2046" transform="translate(58.528 0.195)">
        <path id="Path_4115" data-name="Path 4115" d="M6127.678,289.557h-4.8a1.372,1.372,0,0,1-1.37-1.37v-4.8a1.372,1.372,0,0,1,1.37-1.37h4.8a1.372,1.372,0,0,1,1.37,1.37v4.8A1.372,1.372,0,0,1,6127.678,289.557Zm-4.8-6.832a.661.661,0,0,0-.661.66v4.8a.661.661,0,0,0,.661.66h4.8a.661.661,0,0,0,.661-.66v-4.8a.661.661,0,0,0-.661-.66Z" transform="translate(-6121.506 -282.015)" fill="#0c1011"/>
      </g>
      <g id="Group_2047" data-name="Group 2047" transform="translate(50.166 0.195)">
        <path id="Path_4116" data-name="Path 4116" d="M6119.387,289.557h-4.8a1.373,1.373,0,0,1-1.371-1.37v-4.8a1.373,1.373,0,0,1,1.371-1.37h4.8a1.371,1.371,0,0,1,1.369,1.37v4.8A1.371,1.371,0,0,1,6119.387,289.557Zm-4.8-6.832a.661.661,0,0,0-.661.66v4.8a.661.661,0,0,0,.661.66h4.8a.661.661,0,0,0,.661-.66v-4.8a.661.661,0,0,0-.661-.66Z" transform="translate(-6113.214 -282.015)" fill="#0c1011"/>
      </g>
      <g id="Group_2048" data-name="Group 2048" transform="translate(0 0)">
        <path id="Path_4117" data-name="Path 4117" d="M6069.638,289.363h-4.8a1.372,1.372,0,0,1-1.371-1.369v-4.8a1.372,1.372,0,0,1,1.371-1.369h4.8a1.371,1.371,0,0,1,1.369,1.369v4.8A1.371,1.371,0,0,1,6069.638,289.363Zm-4.8-6.832a.661.661,0,0,0-.661.66v4.8a.661.661,0,0,0,.661.66h4.8a.661.661,0,0,0,.66-.66v-4.8a.661.661,0,0,0-.66-.66Z" transform="translate(-6063.466 -281.822)" fill="#0c1011"/>
      </g>
      <g id="Group_2049" data-name="Group 2049" transform="translate(33.444 0.195)">
        <path id="Path_4118" data-name="Path 4118" d="M6102.8,289.557H6098a1.373,1.373,0,0,1-1.371-1.37v-4.8a1.373,1.373,0,0,1,1.371-1.37h4.8a1.372,1.372,0,0,1,1.37,1.37v4.8A1.372,1.372,0,0,1,6102.8,289.557Zm-4.8-6.832a.661.661,0,0,0-.661.66v4.8a.661.661,0,0,0,.661.66h4.8a.66.66,0,0,0,.66-.66v-4.8a.66.66,0,0,0-.66-.66Z" transform="translate(-6096.631 -282.015)" fill="#0c1011"/>
      </g>
      <g id="Group_2050" data-name="Group 2050" transform="translate(25.084 0.195)">
        <path id="Path_4119" data-name="Path 4119" d="M6094.512,289.557h-4.8a1.372,1.372,0,0,1-1.37-1.37v-4.8a1.372,1.372,0,0,1,1.37-1.37h4.8a1.371,1.371,0,0,1,1.369,1.37v4.8A1.371,1.371,0,0,1,6094.512,289.557Zm-4.8-6.832a.661.661,0,0,0-.661.66v4.8a.661.661,0,0,0,.661.66h4.8a.661.661,0,0,0,.661-.66v-4.8a.661.661,0,0,0-.661-.66Z" transform="translate(-6088.341 -282.015)" fill="#0c1011"/>
      </g>
      <g id="Group_2051" data-name="Group 2051" transform="translate(16.722 0.195)">
        <path id="Path_4120" data-name="Path 4120" d="M6086.221,289.557h-4.8a1.373,1.373,0,0,1-1.371-1.37v-4.8a1.373,1.373,0,0,1,1.371-1.37h4.8a1.372,1.372,0,0,1,1.37,1.37v4.8A1.372,1.372,0,0,1,6086.221,289.557Zm-4.8-6.832a.661.661,0,0,0-.661.66v4.8a.661.661,0,0,0,.661.66h4.8a.66.66,0,0,0,.66-.66v-4.8a.66.66,0,0,0-.66-.66Z" transform="translate(-6080.048 -282.015)" fill="#0c1011"/>
      </g>
      <g id="Group_2052" data-name="Group 2052" transform="translate(8.362 0.195)">
        <path id="Path_4121" data-name="Path 4121" d="M6077.929,289.557h-4.8a1.372,1.372,0,0,1-1.37-1.37v-4.8a1.372,1.372,0,0,1,1.37-1.37h4.8a1.371,1.371,0,0,1,1.369,1.37v4.8A1.371,1.371,0,0,1,6077.929,289.557Zm-4.8-6.832a.661.661,0,0,0-.661.66v4.8a.661.661,0,0,0,.661.66h4.8a.661.661,0,0,0,.661-.66v-4.8a.661.661,0,0,0-.661-.66Z" transform="translate(-6071.757 -282.015)" fill="#0c1011"/>
      </g>
    </g>
    <g id="Group_2069" data-name="Group 2069" transform="translate(6063.537 323.903)">
      <g id="Group_2054" data-name="Group 2054" transform="translate(83.611 0)">
        <path id="Path_4122" data-name="Path 4122" d="M6152.553,330.329h-4.8a1.372,1.372,0,0,1-1.37-1.369v-4.8a1.372,1.372,0,0,1,1.37-1.37h4.8a1.372,1.372,0,0,1,1.37,1.37v4.8A1.371,1.371,0,0,1,6152.553,330.329Zm-4.8-6.832a.661.661,0,0,0-.661.66v4.8a.661.661,0,0,0,.661.659h4.8a.661.661,0,0,0,.661-.659v-4.8a.661.661,0,0,0-.661-.66Z" transform="translate(-6146.381 -322.787)" fill="#0c1011"/>
      </g>
      <g id="Group_2055" data-name="Group 2055" transform="translate(117.055 0.196)">
        <path id="Path_4123" data-name="Path 4123" d="M6185.719,330.522h-4.8a1.371,1.371,0,0,1-1.369-1.369v-4.8a1.371,1.371,0,0,1,1.369-1.369h4.8a1.37,1.37,0,0,1,1.369,1.369v4.8A1.37,1.37,0,0,1,6185.719,330.522Zm-4.8-6.832a.661.661,0,0,0-.66.66v4.8a.661.661,0,0,0,.66.66h4.8a.662.662,0,0,0,.661-.66v-4.8a.662.662,0,0,0-.661-.66Z" transform="translate(-6179.547 -322.981)" fill="#0c1011"/>
      </g>
      <g id="Group_2056" data-name="Group 2056" transform="translate(108.694 0.196)">
        <path id="Path_4124" data-name="Path 4124" d="M6177.427,330.522h-4.8a1.371,1.371,0,0,1-1.369-1.369v-4.8a1.371,1.371,0,0,1,1.369-1.369h4.8a1.372,1.372,0,0,1,1.37,1.369v4.8A1.372,1.372,0,0,1,6177.427,330.522Zm-4.8-6.832a.661.661,0,0,0-.659.66v4.8a.661.661,0,0,0,.659.66h4.8a.661.661,0,0,0,.66-.66v-4.8a.661.661,0,0,0-.66-.66Z" transform="translate(-6171.256 -322.981)" fill="#0c1011"/>
      </g>
      <g id="Group_2057" data-name="Group 2057" transform="translate(100.333 0.196)">
        <path id="Path_4125" data-name="Path 4125" d="M6169.136,330.522h-4.8a1.371,1.371,0,0,1-1.37-1.369v-4.8a1.371,1.371,0,0,1,1.37-1.369h4.8a1.371,1.371,0,0,1,1.37,1.369v4.8A1.371,1.371,0,0,1,6169.136,330.522Zm-4.8-6.832a.661.661,0,0,0-.661.66v4.8a.661.661,0,0,0,.661.66h4.8a.662.662,0,0,0,.661-.66v-4.8a.662.662,0,0,0-.661-.66Z" transform="translate(-6162.964 -322.981)" fill="#0c1011"/>
      </g>
      <g id="Group_2058" data-name="Group 2058" transform="translate(91.972 0.196)">
        <path id="Path_4126" data-name="Path 4126" d="M6160.844,330.522h-4.8a1.371,1.371,0,0,1-1.369-1.369v-4.8a1.371,1.371,0,0,1,1.369-1.369h4.8a1.371,1.371,0,0,1,1.37,1.369v4.8A1.371,1.371,0,0,1,6160.844,330.522Zm-4.8-6.832a.661.661,0,0,0-.659.66v4.8a.661.661,0,0,0,.659.66h4.8a.662.662,0,0,0,.661-.66v-4.8a.662.662,0,0,0-.661-.66Z" transform="translate(-6154.672 -322.981)" fill="#0c1011"/>
      </g>
      <g id="Group_2059" data-name="Group 2059" transform="translate(41.806 0)">
        <path id="Path_4127" data-name="Path 4127" d="M6111.1,330.329h-4.8a1.372,1.372,0,0,1-1.37-1.369v-4.8a1.372,1.372,0,0,1,1.37-1.37h4.8a1.372,1.372,0,0,1,1.369,1.37v4.8A1.371,1.371,0,0,1,6111.1,330.329Zm-4.8-6.832a.661.661,0,0,0-.661.66v4.8a.661.661,0,0,0,.661.659h4.8a.661.661,0,0,0,.661-.659v-4.8a.661.661,0,0,0-.661-.66Z" transform="translate(-6104.923 -322.787)" fill="#0c1011"/>
      </g>
      <g id="Group_2060" data-name="Group 2060" transform="translate(75.25 0.196)">
        <path id="Path_4128" data-name="Path 4128" d="M6144.261,330.522h-4.8a1.371,1.371,0,0,1-1.37-1.369v-4.8a1.371,1.371,0,0,1,1.37-1.369h4.8a1.37,1.37,0,0,1,1.369,1.369v4.8A1.37,1.37,0,0,1,6144.261,330.522Zm-4.8-6.832a.661.661,0,0,0-.661.66v4.8a.661.661,0,0,0,.661.66h4.8a.662.662,0,0,0,.661-.66v-4.8a.662.662,0,0,0-.661-.66Z" transform="translate(-6138.089 -322.981)" fill="#0c1011"/>
      </g>
      <g id="Group_2061" data-name="Group 2061" transform="translate(66.889 0.196)">
        <path id="Path_4129" data-name="Path 4129" d="M6135.97,330.522h-4.8a1.371,1.371,0,0,1-1.37-1.369v-4.8a1.371,1.371,0,0,1,1.37-1.369h4.8a1.37,1.37,0,0,1,1.369,1.369v4.8A1.37,1.37,0,0,1,6135.97,330.522Zm-4.8-6.832a.661.661,0,0,0-.661.66v4.8a.661.661,0,0,0,.661.66h4.8a.662.662,0,0,0,.661-.66v-4.8a.662.662,0,0,0-.661-.66Z" transform="translate(-6129.799 -322.981)" fill="#0c1011"/>
      </g>
      <g id="Group_2062" data-name="Group 2062" transform="translate(58.528 0.196)">
        <path id="Path_4130" data-name="Path 4130" d="M6127.678,330.522h-4.8a1.371,1.371,0,0,1-1.37-1.369v-4.8a1.371,1.371,0,0,1,1.37-1.369h4.8a1.371,1.371,0,0,1,1.37,1.369v4.8A1.371,1.371,0,0,1,6127.678,330.522Zm-4.8-6.832a.662.662,0,0,0-.661.66v4.8a.662.662,0,0,0,.661.66h4.8a.662.662,0,0,0,.661-.66v-4.8a.662.662,0,0,0-.661-.66Z" transform="translate(-6121.506 -322.981)" fill="#0c1011"/>
      </g>
      <g id="Group_2063" data-name="Group 2063" transform="translate(50.166 0.196)">
        <path id="Path_4131" data-name="Path 4131" d="M6119.387,330.522h-4.8a1.372,1.372,0,0,1-1.371-1.369v-4.8a1.372,1.372,0,0,1,1.371-1.369h4.8a1.37,1.37,0,0,1,1.369,1.369v4.8A1.37,1.37,0,0,1,6119.387,330.522Zm-4.8-6.832a.661.661,0,0,0-.661.66v4.8a.661.661,0,0,0,.661.66h4.8a.662.662,0,0,0,.661-.66v-4.8a.662.662,0,0,0-.661-.66Z" transform="translate(-6113.214 -322.981)" fill="#0c1011"/>
      </g>
      <g id="Group_2064" data-name="Group 2064" transform="translate(0 0)">
        <path id="Path_4132" data-name="Path 4132" d="M6069.638,330.329h-4.8a1.372,1.372,0,0,1-1.371-1.369v-4.8a1.373,1.373,0,0,1,1.371-1.37h4.8a1.372,1.372,0,0,1,1.369,1.37v4.8A1.372,1.372,0,0,1,6069.638,330.329Zm-4.8-6.832a.661.661,0,0,0-.661.66v4.8a.661.661,0,0,0,.661.659h4.8a.66.66,0,0,0,.66-.659v-4.8a.66.66,0,0,0-.66-.66Z" transform="translate(-6063.466 -322.787)" fill="#0c1011"/>
      </g>
      <g id="Group_2065" data-name="Group 2065" transform="translate(33.444 0.196)">
        <path id="Path_4133" data-name="Path 4133" d="M6102.8,330.522H6098a1.372,1.372,0,0,1-1.371-1.369v-4.8a1.372,1.372,0,0,1,1.371-1.369h4.8a1.371,1.371,0,0,1,1.37,1.369v4.8A1.371,1.371,0,0,1,6102.8,330.522Zm-4.8-6.832a.661.661,0,0,0-.661.66v4.8a.661.661,0,0,0,.661.66h4.8a.661.661,0,0,0,.66-.66v-4.8a.661.661,0,0,0-.66-.66Z" transform="translate(-6096.631 -322.981)" fill="#0c1011"/>
      </g>
      <g id="Group_2066" data-name="Group 2066" transform="translate(25.084 0.196)">
        <path id="Path_4134" data-name="Path 4134" d="M6094.512,330.522h-4.8a1.371,1.371,0,0,1-1.37-1.369v-4.8a1.371,1.371,0,0,1,1.37-1.369h4.8a1.37,1.37,0,0,1,1.369,1.369v4.8A1.37,1.37,0,0,1,6094.512,330.522Zm-4.8-6.832a.661.661,0,0,0-.661.66v4.8a.661.661,0,0,0,.661.66h4.8a.662.662,0,0,0,.661-.66v-4.8a.662.662,0,0,0-.661-.66Z" transform="translate(-6088.341 -322.981)" fill="#0c1011"/>
      </g>
      <g id="Group_2067" data-name="Group 2067" transform="translate(16.722 0.196)">
        <path id="Path_4135" data-name="Path 4135" d="M6086.221,330.522h-4.8a1.372,1.372,0,0,1-1.371-1.369v-4.8a1.372,1.372,0,0,1,1.371-1.369h4.8a1.371,1.371,0,0,1,1.37,1.369v4.8A1.371,1.371,0,0,1,6086.221,330.522Zm-4.8-6.832a.662.662,0,0,0-.661.66v4.8a.662.662,0,0,0,.661.66h4.8a.661.661,0,0,0,.66-.66v-4.8a.661.661,0,0,0-.66-.66Z" transform="translate(-6080.048 -322.981)" fill="#0c1011"/>
      </g>
      <g id="Group_2068" data-name="Group 2068" transform="translate(8.362 0.196)">
        <path id="Path_4136" data-name="Path 4136" d="M6077.929,330.522h-4.8a1.371,1.371,0,0,1-1.37-1.369v-4.8a1.371,1.371,0,0,1,1.37-1.369h4.8a1.37,1.37,0,0,1,1.369,1.369v4.8A1.37,1.37,0,0,1,6077.929,330.522Zm-4.8-6.832a.661.661,0,0,0-.661.66v4.8a.661.661,0,0,0,.661.66h4.8a.662.662,0,0,0,.661-.66v-4.8a.662.662,0,0,0-.661-.66Z" transform="translate(-6071.757 -322.981)" fill="#0c1011"/>
      </g>
    </g>
    <g id="Group_2082" data-name="Group 2082" transform="translate(6063.537 290.801)">
      <g id="Group_2070" data-name="Group 2070" transform="translate(83.611)">
        <path id="Path_4137" data-name="Path 4137" d="M6152.553,297.5h-4.8a1.371,1.371,0,0,1-1.37-1.369v-4.8a1.371,1.371,0,0,1,1.37-1.369h4.8a1.371,1.371,0,0,1,1.37,1.369v4.8A1.371,1.371,0,0,1,6152.553,297.5Zm-4.8-6.832a.662.662,0,0,0-.661.66v4.8a.662.662,0,0,0,.661.66h4.8a.662.662,0,0,0,.661-.66v-4.8a.662.662,0,0,0-.661-.66Z" transform="translate(-6146.381 -289.96)" fill="#0c1011"/>
      </g>
      <g id="Group_2071" data-name="Group 2071" transform="translate(83.611 8.206)">
        <path id="Path_4138" data-name="Path 4138" d="M6152.553,305.639h-4.8a1.371,1.371,0,0,1-1.37-1.369v-4.8a1.371,1.371,0,0,1,1.37-1.369h4.8a1.371,1.371,0,0,1,1.37,1.369v4.8A1.371,1.371,0,0,1,6152.553,305.639Zm-4.8-6.832a.662.662,0,0,0-.661.66v4.8a.662.662,0,0,0,.661.66h4.8a.662.662,0,0,0,.661-.66v-4.8a.662.662,0,0,0-.661-.66Z" transform="translate(-6146.381 -298.098)" fill="#0c1011"/>
      </g>
      <g id="Group_2072" data-name="Group 2072" transform="translate(83.611 16.412)">
        <path id="Path_4139" data-name="Path 4139" d="M6152.553,313.777h-4.8a1.371,1.371,0,0,1-1.37-1.369v-4.8a1.371,1.371,0,0,1,1.37-1.369h4.8a1.371,1.371,0,0,1,1.37,1.369v4.8A1.371,1.371,0,0,1,6152.553,313.777Zm-4.8-6.832a.662.662,0,0,0-.661.66v4.8a.662.662,0,0,0,.661.66h4.8a.662.662,0,0,0,.661-.66v-4.8a.662.662,0,0,0-.661-.66Z" transform="translate(-6146.381 -306.236)" fill="#0c1011"/>
      </g>
      <g id="Group_2073" data-name="Group 2073" transform="translate(83.611 24.619)">
        <path id="Path_4140" data-name="Path 4140" d="M6152.553,321.915h-4.8a1.371,1.371,0,0,1-1.37-1.369v-4.8a1.371,1.371,0,0,1,1.37-1.369h4.8a1.371,1.371,0,0,1,1.37,1.369v4.8A1.371,1.371,0,0,1,6152.553,321.915Zm-4.8-6.832a.662.662,0,0,0-.661.66v4.8a.662.662,0,0,0,.661.66h4.8a.662.662,0,0,0,.661-.66v-4.8a.662.662,0,0,0-.661-.66Z" transform="translate(-6146.381 -314.374)" fill="#0c1011"/>
      </g>
      <g id="Group_2074" data-name="Group 2074" transform="translate(41.806)">
        <path id="Path_4141" data-name="Path 4141" d="M6111.1,297.5h-4.8a1.371,1.371,0,0,1-1.37-1.369v-4.8a1.371,1.371,0,0,1,1.37-1.369h4.8a1.371,1.371,0,0,1,1.369,1.369v4.8A1.371,1.371,0,0,1,6111.1,297.5Zm-4.8-6.832a.661.661,0,0,0-.661.66v4.8a.661.661,0,0,0,.661.66h4.8a.662.662,0,0,0,.661-.66v-4.8a.662.662,0,0,0-.661-.66Z" transform="translate(-6104.923 -289.96)" fill="#0c1011"/>
      </g>
      <g id="Group_2075" data-name="Group 2075" transform="translate(41.806 8.206)">
        <path id="Path_4142" data-name="Path 4142" d="M6111.1,305.639h-4.8a1.371,1.371,0,0,1-1.37-1.369v-4.8a1.371,1.371,0,0,1,1.37-1.369h4.8a1.371,1.371,0,0,1,1.369,1.369v4.8A1.371,1.371,0,0,1,6111.1,305.639Zm-4.8-6.832a.661.661,0,0,0-.661.66v4.8a.661.661,0,0,0,.661.66h4.8a.662.662,0,0,0,.661-.66v-4.8a.662.662,0,0,0-.661-.66Z" transform="translate(-6104.923 -298.098)" fill="#0c1011"/>
      </g>
      <g id="Group_2076" data-name="Group 2076" transform="translate(41.806 16.412)">
        <path id="Path_4143" data-name="Path 4143" d="M6111.1,313.777h-4.8a1.371,1.371,0,0,1-1.37-1.369v-4.8a1.371,1.371,0,0,1,1.37-1.369h4.8a1.371,1.371,0,0,1,1.369,1.369v4.8A1.371,1.371,0,0,1,6111.1,313.777Zm-4.8-6.832a.661.661,0,0,0-.661.66v4.8a.661.661,0,0,0,.661.66h4.8a.662.662,0,0,0,.661-.66v-4.8a.662.662,0,0,0-.661-.66Z" transform="translate(-6104.923 -306.236)" fill="#0c1011"/>
      </g>
      <g id="Group_2077" data-name="Group 2077" transform="translate(41.806 24.619)">
        <path id="Path_4144" data-name="Path 4144" d="M6111.1,321.915h-4.8a1.371,1.371,0,0,1-1.37-1.369v-4.8a1.371,1.371,0,0,1,1.37-1.369h4.8a1.371,1.371,0,0,1,1.369,1.369v4.8A1.371,1.371,0,0,1,6111.1,321.915Zm-4.8-6.832a.661.661,0,0,0-.661.66v4.8a.661.661,0,0,0,.661.66h4.8a.662.662,0,0,0,.661-.66v-4.8a.662.662,0,0,0-.661-.66Z" transform="translate(-6104.923 -314.374)" fill="#0c1011"/>
      </g>
      <g id="Group_2078" data-name="Group 2078">
        <path id="Path_4145" data-name="Path 4145" d="M6069.638,297.5h-4.8a1.372,1.372,0,0,1-1.371-1.369v-4.8a1.372,1.372,0,0,1,1.371-1.369h4.8a1.371,1.371,0,0,1,1.369,1.369v4.8A1.371,1.371,0,0,1,6069.638,297.5Zm-4.8-6.832a.661.661,0,0,0-.661.66v4.8a.661.661,0,0,0,.661.66h4.8a.661.661,0,0,0,.66-.66v-4.8a.661.661,0,0,0-.66-.66Z" transform="translate(-6063.466 -289.96)" fill="#0c1011"/>
      </g>
      <g id="Group_2079" data-name="Group 2079" transform="translate(0 8.206)">
        <path id="Path_4146" data-name="Path 4146" d="M6069.638,305.639h-4.8a1.372,1.372,0,0,1-1.371-1.369v-4.8a1.372,1.372,0,0,1,1.371-1.369h4.8a1.371,1.371,0,0,1,1.369,1.369v4.8A1.371,1.371,0,0,1,6069.638,305.639Zm-4.8-6.832a.661.661,0,0,0-.661.66v4.8a.661.661,0,0,0,.661.66h4.8a.661.661,0,0,0,.66-.66v-4.8a.661.661,0,0,0-.66-.66Z" transform="translate(-6063.466 -298.098)" fill="#0c1011"/>
      </g>
      <g id="Group_2080" data-name="Group 2080" transform="translate(0 16.412)">
        <path id="Path_4147" data-name="Path 4147" d="M6069.638,313.777h-4.8a1.372,1.372,0,0,1-1.371-1.369v-4.8a1.372,1.372,0,0,1,1.371-1.369h4.8a1.371,1.371,0,0,1,1.369,1.369v4.8A1.371,1.371,0,0,1,6069.638,313.777Zm-4.8-6.832a.661.661,0,0,0-.661.66v4.8a.661.661,0,0,0,.661.66h4.8a.661.661,0,0,0,.66-.66v-4.8a.661.661,0,0,0-.66-.66Z" transform="translate(-6063.466 -306.236)" fill="#0c1011"/>
      </g>
      <g id="Group_2081" data-name="Group 2081" transform="translate(0 24.619)">
        <path id="Path_4148" data-name="Path 4148" d="M6069.638,321.915h-4.8a1.372,1.372,0,0,1-1.371-1.369v-4.8a1.372,1.372,0,0,1,1.371-1.369h4.8a1.371,1.371,0,0,1,1.369,1.369v4.8A1.371,1.371,0,0,1,6069.638,321.915Zm-4.8-6.832a.661.661,0,0,0-.661.66v4.8a.661.661,0,0,0,.661.66h4.8a.661.661,0,0,0,.66-.66v-4.8a.661.661,0,0,0-.66-.66Z" transform="translate(-6063.466 -314.374)" fill="#0c1011"/>
      </g>
    </g>
    <path id="Rectangle_332" data-name="Rectangle 332" d="M3.89,0H26.519A3.891,3.891,0,0,1,30.41,3.891V26.519a3.891,3.891,0,0,1-3.891,3.891H3.89A3.89,3.89,0,0,1,0,26.52V3.89A3.89,3.89,0,0,1,3.89,0Z" transform="translate(6156.823 209.851)" fill="url(#linear-gradient)"/>
    <path id="Path_4149" data-name="Path 4149" d="M6181.622,280.107H6159.84a4.093,4.093,0,0,1-4.089-4.089V254.236a4.093,4.093,0,0,1,4.089-4.089h21.782a4.094,4.094,0,0,1,4.088,4.089v21.782A4.094,4.094,0,0,1,6181.622,280.107Zm-21.782-29.363a3.5,3.5,0,0,0-3.492,3.492v21.782a3.5,3.5,0,0,0,3.492,3.492h21.782a3.5,3.5,0,0,0,3.491-3.492V254.236a3.5,3.5,0,0,0-3.491-3.492Z" transform="translate(0.846 0.507)" fill="url(#linear-gradient)"/>
    <path id="Rectangle_333" data-name="Rectangle 333" d="M3.891,0H26.521a3.891,3.891,0,0,1,3.891,3.891V26.521a3.891,3.891,0,0,1-3.891,3.891H3.89A3.89,3.89,0,0,1,0,26.521V3.891A3.891,3.891,0,0,1,3.891,0Z" transform="translate(6156.368 292.163)" fill="url(#linear-gradient)"/>
    <rect id="Rectangle_335" data-name="Rectangle 335" width="29.96" height="29.96" rx="3.785" transform="translate(6114.791 292.388)" fill="#fff"/>
    <path id="Path_4150" data-name="Path 4150" d="M6140.554,321.249h-22.111a4.156,4.156,0,0,1-4.151-4.151V294.987a4.156,4.156,0,0,1,4.151-4.15h22.111a4.155,4.155,0,0,1,4.15,4.15V317.1A4.155,4.155,0,0,1,6140.554,321.249Zm-22.111-29.806a3.549,3.549,0,0,0-3.544,3.544V317.1a3.549,3.549,0,0,0,3.544,3.544h22.111a3.549,3.549,0,0,0,3.544-3.544V294.987a3.549,3.549,0,0,0-3.544-3.544Z" transform="translate(0.498 1.326)" fill="url(#linear-gradient)"/>
    <path id="Path_4156" data-name="Path 4156" d="M3.949,0H26.461A3.949,3.949,0,0,1,30.41,3.949V26.461a3.949,3.949,0,0,1-3.949,3.949H3.949A3.949,3.949,0,0,1,0,26.461V3.949A3.949,3.949,0,0,1,3.949,0Z" transform="translate(6073.213 292.163)" fill="url(#linear-gradient)"/>
    <g id="Group_2084" data-name="Group 2084" transform="translate(6054.971 189.654)">
      <g id="Group_2083" data-name="Group 2083">
        <path id="Path_4151" data-name="Path 4151" d="M6084.4,257.988a7.041,7.041,0,0,0,3.836-1.261,3.694,3.694,0,0,0,.582-.453c1.173-1.152,2.347-2.3,3.5-3.47a5.311,5.311,0,0,0-4.229-9.092,5.535,5.535,0,0,0-3.515,1.756c-.935.928-1.859,1.867-2.827,2.759a.82.82,0,0,1-.772.119c-.281-.229-.152-.553.115-.814,1.094-1.068,2.135-2.19,3.269-3.212a6.1,6.1,0,0,1,4.575-1.548,6.191,6.191,0,0,1,3.42,1.183,5.8,5.8,0,0,1,2.386,4.092,5.988,5.988,0,0,1-1.763,5.35c-.736.727-1.432,1.5-2.171,2.219a16.948,16.948,0,0,1-2.106,1.927,7.962,7.962,0,0,1-3.673,1.368,8.773,8.773,0,0,1-4.128-.57,9.777,9.777,0,0,1-3.427-2.557c-.6-.612-1.173-1.253-1.764-1.877a7.485,7.485,0,0,1-1.977-5.66,7.973,7.973,0,0,1,2.348-5.443q2.938-2.986,5.9-5.952c.232-.233.47-.465.82-.158.223.2.284.393.058.618-.987.983-1.993,1.947-2.962,2.949-1.373,1.417-2.817,2.781-4.042,4.318a6.41,6.41,0,0,0-1.19,4.181,7.445,7.445,0,0,0,2.471,5.4,24.208,24.208,0,0,0,2.712,2.536A6.9,6.9,0,0,0,6084.4,257.988Z" transform="translate(-6054.814 -189.261)" fill="#0c1011" stroke="#000" stroke-width="0.5"/>
        <path id="Path_4152" data-name="Path 4152" d="M6078.969,266.7c-2-.268-4.041-.564-6.093-.812-2.144-.26-4.3-.454-6.44-.715-1.929-.235-3.852-.528-5.779-.787-1.3-.174-2.6-.36-3.909-.473a1.006,1.006,0,0,0-.837.393c-.106.248.108.633.186.958,0,.016.023.029.038.042q2.295,2.288,4.591,4.575,3.053,3.033,6.113,6.061c.472.47.939.947,1.364,1.458.12.145.082.423.117.64-.232-.026-.55.037-.683-.091-1.441-1.4-2.852-2.824-4.272-4.241q-2.437-2.431-4.876-4.857c-1.013-1.012-2.016-2.034-3.024-3.051a1.714,1.714,0,0,1-.328-1.921,1.816,1.816,0,0,1,1.812-.833c2.172.283,4.35.526,6.523.8,1.728.219,3.449.473,5.176.694,2.588.332,5.179.648,7.768.972.794.1,1.59.195,2.383.307.38.054.739.046.947-.326a.753.753,0,0,0-.159-.967c-.106-.106-.171-.25-.276-.355q-3.426-3.4-6.855-6.786-2.341-2.323-4.671-4.659a2.2,2.2,0,0,1-.416-.535c-.071-.137-.112-.419-.044-.469a.688.688,0,0,1,.545-.11c.181.063.32.262.464.414.1.108.171.249.276.354q3.012,2.993,6.031,5.981,2.728,2.707,5.456,5.418a1.7,1.7,0,0,1,.519,1.819,1.485,1.485,0,0,1-1.154,1.062C6079.318,266.686,6079.172,266.684,6078.969,266.7Z" transform="translate(-6054.971 -189.135)" fill="#0c1011" stroke="#000" stroke-width="0.5"/>
        <path id="Path_4153" data-name="Path 4153" d="M6107.771,234.582a7.3,7.3,0,0,0-2.261-5.5c-1.3-1.236-2.545-2.534-3.813-3.807-1.187-1.19-2.365-2.388-3.562-3.57-.281-.277-.363-.6-.079-.827a.771.771,0,0,1,.723.117c1.962,1.906,3.9,3.835,5.837,5.767.647.645,1.3,1.291,1.9,1.975a8.1,8.1,0,0,1,1.992,7.357,7.936,7.936,0,0,1-2.988,4.777,20.937,20.937,0,0,1-2.418,1.895,7.858,7.858,0,0,1-6.827.337,9.513,9.513,0,0,1-3.387-2.425c-.5-.5-.97-1.028-1.47-1.526q-2.621-2.618-5.254-5.223c-.095-.094-.248-.183-.263-.289a3.5,3.5,0,0,1,.025-.68c.218.017.507-.049.641.066.552.472,1.063.994,1.578,1.508,1.232,1.229,2.449,2.474,3.69,3.693a35.6,35.6,0,0,0,3.451,3.249,7.8,7.8,0,0,0,2.882,1.168,6.485,6.485,0,0,0,3.481-.258,6.321,6.321,0,0,0,2.564-1.466,27.293,27.293,0,0,0,2.266-2.5A6.421,6.421,0,0,0,6107.771,234.582Z" transform="translate(-6054.711 -189.393)" fill="#0c1011" stroke="#000" stroke-width="0.5"/>
        <path id="Path_4154" data-name="Path 4154" d="M6129.548,189.654c.116.128.2.23.3.323,2.367,2.34,4.709,4.705,7.111,7.009a8.546,8.546,0,0,1,2.778,5.139,8.09,8.09,0,0,1-.862,4.955,12.715,12.715,0,0,1-3.945,4.189,7.458,7.458,0,0,1-5.583,1.243,8.034,8.034,0,0,1-4.572-2.176c-1.41-1.345-2.767-2.746-4.144-4.125-1.161-1.162-2.31-2.336-3.483-3.486-.281-.274-.413-.573-.1-.8a.814.814,0,0,1,.769.118c2.031,1.97,4.023,3.982,6.05,5.959a32.439,32.439,0,0,0,2.824,2.554,6.124,6.124,0,0,0,3.859,1.083,6.485,6.485,0,0,0,4.049-1.274c1.99-1.532,3.8-3.277,4.186-5.941a7.186,7.186,0,0,0-2.169-6.469q-3.115-3.055-6.2-6.141c-.392-.39-.763-.8-1.147-1.2C6128.806,190.141,6128.873,189.893,6129.548,189.654Z" transform="translate(-6054.452 -189.654)" fill="#0c1011" stroke="#000" stroke-width="0.5"/>
        <path id="Path_4155" data-name="Path 4155" d="M6121.924,222.978a3.227,3.227,0,0,1-2.807,3.416,5.06,5.06,0,0,1-2.148-.434c-1.651-.622-3.27-1.332-4.9-2.01-1.26-.522-2.515-1.057-3.78-1.571-1.284-.521-2.577-1.02-3.863-1.537-1.237-.5-2.479-.986-3.7-1.528-.187-.083-.258-.428-.383-.652.248-.06.542-.237.735-.16,1.576.627,3.132,1.307,4.7,1.96q3.753,1.567,7.511,3.123c1.4.58,2.79,1.17,4.194,1.732,1.684.675,3.257,0,3.578-1.848a2.048,2.048,0,0,0-.127-1.047c-.532-1.341-1.118-2.661-1.666-4-.6-1.46-1.167-2.931-1.766-4.392-.741-1.809-1.507-3.608-2.246-5.418-.434-1.065-.849-2.138-1.235-3.221-.056-.158.1-.391.156-.589.2.121.507.2.58.37.916,2.179,1.793,4.373,2.688,6.561.979,2.392,1.972,4.779,2.947,7.172.5,1.225.976,2.459,1.453,3.693A1.525,1.525,0,0,1,6121.924,222.978Z" transform="translate(-6054.59 -189.527)" fill="#0c1011" stroke="#000" stroke-width="0.5"/>
      </g>
    </g>
    <path id="Rectangle_334" data-name="Rectangle 334" d="M3.891,0H26.52a3.89,3.89,0,0,1,3.89,3.89V26.52a3.89,3.89,0,0,1-3.89,3.89H3.891A3.891,3.891,0,0,1,0,26.519V3.891A3.891,3.891,0,0,1,3.891,0Z" transform="translate(6114.563 250.856)" fill="url(#linear-gradient)"/>
  </g>
</svg>
